# xmcd
#
# Track frame offsets: 
#        150
#        2262
#        17805
#        33418
#        50532
#        63577
#        80599
#        98837
#        117530
#        129840
#        146609
#        165435
#        189874
#        215999
#        233756
#        249461
#        263834
#        299822
#
# Disc length: 4211 seconds
#
# Revision: 2
# Processed by: cddbd v1.5.2PL0 Copyright (c) Steve Scherf et al.
# Submitted via: ExactAudioCopy v1.1
#
DISCID=fe107112
DTITLE=Tory Lanez - Memories Don't Die
DYEAR=2018
DGENRE=Rap
TTITLE0=Memories
TTITLE1=Old Friends X New Foes
TTITLE2=Shooters
TTITLE3=4 Me
TTITLE4=Skrt Skrt
TTITLE5=Benevolent
TTITLE6=Real Thing (Feat. Future)
TTITLE7=Hate To Say
TTITLE8=B.I.D.
TTITLE9=48 Floors (Feat. Mansa)
TTITLE10=B.B.W.W. X Fake Show
TTITLE11=Dance For Me (Feat. Nav)
TTITLE12=Pieces (Feat. 50 Cent)
TTITLE13=Connection (Feat. Fabolous, David, and Paloma Ford)
TTITLE14=Hillside (Feat. Wiz Khalifa and Mansa)
TTITLE15=Hypnotized
TTITLE16=Happiness X Tell Me
TTITLE17=Don't Die
EXTD=
EXTT0=
EXTT1=
EXTT2=
EXTT3=
EXTT4=
EXTT5=
EXTT6=
EXTT7=
EXTT8=
EXTT9=
EXTT10=
EXTT11=
EXTT12=
EXTT13=
EXTT14=
EXTT15=
EXTT16=
EXTT17=
PLAYORDER=
